name rise49.5252peak65.1548fall88.8305.mot
datacolumns 19
datarows 18
range 5.77164200000000 5.79997200000000
endheader
time	ground_force1_vx	ground_force1_vy	ground_force1_vz	ground_force1_px	ground_force1_py	ground_force1_pz	ground_force2_vx	ground_force2_vy	ground_force2_vz	ground_force2_px	ground_force2_py	ground_force2_pz	ground_torque1_x	ground_torque1_y	ground_torque1_z	ground_torque2_x	ground_torque2_y	ground_torque2_z	
5.77164200000000	4.52966000000000	702.44512099999997	43.08680400000000	0.23931600000000	0.00000000000000	0.12010000000000	0.00000000000000	0.00000000000000	0.00000000000000	0.00000000000000	0.00000000000000	0.00000000000000	0.00000000000000	19.76597700000000	0.00000000000000	0.00000000000000	0.00000000000000	0.00000000000000	
5.77330500000000	4.29482900000000	702.43144600000005	43.12512600000000	0.23869700000000	0.00000000000000	0.12002500000000	0.00000000000000	0.00000000000000	0.00000000000000	0.00000000000000	0.00000000000000	0.00000000000000	0.00000000000000	19.81473300000000	0.00000000000000	0.00000000000000	0.00000000000000	0.00000000000000	
5.77498000000000	4.05564700000000	702.47678199999996	43.17060200000000	0.23812900000000	0.00000000000000	0.11994800000000	0.00000000000000	0.00000000000000	0.00000000000000	0.00000000000000	0.00000000000000	0.00000000000000	0.00000000000000	19.87095600000000	0.00000000000000	0.00000000000000	0.00000000000000	0.00000000000000	
5.77663600000000	3.81138500000000	702.58014900000001	43.22280400000000	0.23761000000000	0.00000000000000	0.11986800000000	0.00000000000000	0.00000000000000	0.00000000000000	0.00000000000000	0.00000000000000	0.00000000000000	0.00000000000000	19.93445200000000	0.00000000000000	0.00000000000000	0.00000000000000	0.00000000000000	
5.77830500000000	3.56131800000000	702.74057300000004	43.28130400000000	0.23713700000000	0.00000000000000	0.11978700000000	0.00000000000000	0.00000000000000	0.00000000000000	0.00000000000000	0.00000000000000	0.00000000000000	0.00000000000000	20.00501600000000	0.00000000000000	0.00000000000000	0.00000000000000	0.00000000000000	
5.77997300000000	3.30472900000000	702.95709399999998	43.34567900000000	0.23670700000000	0.00000000000000	0.11970300000000	0.00000000000000	0.00000000000000	0.00000000000000	0.00000000000000	0.00000000000000	0.00000000000000	0.00000000000000	20.08243600000000	0.00000000000000	0.00000000000000	0.00000000000000	0.00000000000000	
5.78164300000000	3.04091400000000	703.22876599999995	43.41551000000000	0.23631700000000	0.00000000000000	0.11961800000000	0.00000000000000	0.00000000000000	0.00000000000000	0.00000000000000	0.00000000000000	0.00000000000000	0.00000000000000	20.16649300000000	0.00000000000000	0.00000000000000	0.00000000000000	0.00000000000000	
5.78330800000000	2.76918100000000	703.55466000000001	43.49038200000000	0.23596400000000	0.00000000000000	0.11953100000000	0.00000000000000	0.00000000000000	0.00000000000000	0.00000000000000	0.00000000000000	0.00000000000000	0.00000000000000	20.25695800000000	0.00000000000000	0.00000000000000	0.00000000000000	0.00000000000000	
5.78497200000000	2.48885700000000	703.93386399999997	43.56989100000000	0.23564500000000	0.00000000000000	0.11944300000000	0.00000000000000	0.00000000000000	0.00000000000000	0.00000000000000	0.00000000000000	0.00000000000000	0.00000000000000	20.35359600000000	0.00000000000000	0.00000000000000	0.00000000000000	0.00000000000000	
5.78663900000000	2.19929000000000	704.36548500000004	43.65363800000000	0.23535500000000	0.00000000000000	0.11935200000000	0.00000000000000	0.00000000000000	0.00000000000000	0.00000000000000	0.00000000000000	0.00000000000000	0.00000000000000	20.45616500000000	0.00000000000000	0.00000000000000	0.00000000000000	0.00000000000000	
5.78830800000000	1.89985300000000	704.84864900000002	43.74123700000000	0.23509200000000	0.00000000000000	0.11926100000000	0.00000000000000	0.00000000000000	0.00000000000000	0.00000000000000	0.00000000000000	0.00000000000000	0.00000000000000	20.56441800000000	0.00000000000000	0.00000000000000	0.00000000000000	0.00000000000000	
5.78997400000000	1.58994400000000	705.38250100000005	43.83231200000000	0.23485100000000	0.00000000000000	0.11916900000000	0.00000000000000	0.00000000000000	0.00000000000000	0.00000000000000	0.00000000000000	0.00000000000000	0.00000000000000	20.67810200000000	0.00000000000000	0.00000000000000	0.00000000000000	0.00000000000000	
5.79163600000000	1.26899200000000	705.96620399999995	43.92649800000000	0.23462900000000	0.00000000000000	0.11907600000000	0.00000000000000	0.00000000000000	0.00000000000000	0.00000000000000	0.00000000000000	0.00000000000000	0.00000000000000	20.79696100000000	0.00000000000000	0.00000000000000	0.00000000000000	0.00000000000000	
5.79330200000000	0.93645900000000	706.59893599999998	44.02344600000000	0.23442100000000	0.00000000000000	0.11898200000000	0.00000000000000	0.00000000000000	0.00000000000000	0.00000000000000	0.00000000000000	0.00000000000000	0.00000000000000	20.92073300000000	0.00000000000000	0.00000000000000	0.00000000000000	0.00000000000000	
5.79497300000000	0.59184400000000	707.27989400000001	44.12281700000000	0.23422500000000	0.00000000000000	0.11888700000000	0.00000000000000	0.00000000000000	0.00000000000000	0.00000000000000	0.00000000000000	0.00000000000000	0.00000000000000	21.04915500000000	0.00000000000000	0.00000000000000	0.00000000000000	0.00000000000000	
5.79663900000000	0.23468200000000	708.00828400000000	44.22429200000000	0.23403600000000	0.00000000000000	0.11879200000000	0.00000000000000	0.00000000000000	0.00000000000000	0.00000000000000	0.00000000000000	0.00000000000000	0.00000000000000	21.18196000000000	0.00000000000000	0.00000000000000	0.00000000000000	0.00000000000000	
5.79831100000000	-0.13544900000000	708.78332599999999	44.32756300000000	0.23385000000000	0.00000000000000	0.11869700000000	0.00000000000000	0.00000000000000	0.00000000000000	0.00000000000000	0.00000000000000	0.00000000000000	0.00000000000000	21.31888200000000	0.00000000000000	0.00000000000000	0.00000000000000	0.00000000000000	
5.79997200000000	-0.51892700000000	709.60424699999999	44.43234200000000	0.23366300000000	0.00000000000000	0.11860200000000	0.00000000000000	0.00000000000000	0.00000000000000	0.00000000000000	0.00000000000000	0.00000000000000	0.00000000000000	21.45965100000000	0.00000000000000	0.00000000000000	0.00000000000000	0.00000000000000	
